Jump_normalized_Motion_pl02
version=1
nRows=10
nColumns=43
inDegrees=yes
endheader
time		pelvis_tilt		pelvis_list		pelvis_rotation		pelvis_tx		pelvis_ty		pelvis_tz		hip_flexion_r		hip_adduction_r		hip_rotation_r		knee_angle_r		ankle_angle_r		subtalar_angle_r		mtp_angle_r		hip_flexion_l		hip_adduction_l		hip_rotation_l		knee_angle_l		ankle_angle_l		subtalar_angle_l		mtp_angle_l		lumbar_extension		lumbar_bending		lumbar_rotation		neck_flexion		neck_lateral_bending		neck_rotation		arm_flex_r		arm_add_r		arm_rot_r		elbow_flex_r		pro_sup_r		wrist_flex_r		wrist_dev_r		hand_finger_flex_r		arm_flex_l		arm_add_l		arm_rot_l		elbow_flex_l		pro_sup_l		wrist_flex_l		wrist_dev_l		hand_finger_flex_l		
0.340000		-1.112654		-11.943601		93.734738		0.024670		1.836239		1.836318		65.833195		-4.535778		2.993018		-124.323893		28.018409		-1.401721		4.401586		65.967999		2.337136		5.750035		-121.855879		31.068906		-10.278475		0.790658		-54.863974		0.522791		-0.171093		35.084815		0.726864		-2.593892		78.197810		-18.573005		20.762854		54.900297		74.250446		-34.059397		7.585980		26.072252		76.091220		-10.263471		12.726448		70.245522		118.366364		-14.325233		14.953937		81.009825		
0.342348		-1.096353		-12.148729		93.742795		0.024682		1.835742		1.834908		65.919904		-4.511272		3.002267		-124.393285		28.008226		-1.391246		4.420806		66.061092		2.313413		5.742081		-121.909659		31.064301		-10.331460		0.906313		-54.667285		0.520090		-0.180596		35.096751		0.783219		-2.567482		79.300887		-18.398264		21.089068		55.121680		74.089284		-33.887382		7.551375		26.096727		77.186724		-10.125237		13.135286		70.269480		118.328675		-14.246278		14.973883		80.986456		
0.344697		-1.081412		-12.386682		93.723368		0.024830		1.835217		1.833483		66.035602		-4.459232		3.019913		-124.419286		27.977214		-1.370553		4.452736		66.186978		2.269827		5.738030		-121.966971		31.027742		-10.394030		1.107597		-54.431767		0.475648		-0.190078		35.027002		0.856047		-2.553299		80.398578		-18.300179		21.571074		55.397329		73.768278		-33.694175		7.476429		26.107630		78.289540		-10.032502		13.592873		70.307111		118.164535		-14.165654		15.020070		80.940836		
0.347045		-1.068225		-12.622773		93.718634		0.024939		1.834795		1.832007		66.135399		-4.428696		3.031405		-124.437494		27.997633		-1.360664		4.470448		66.287006		2.239394		5.742481		-121.994026		31.059287		-10.429072		1.189425		-54.216486		0.458990		-0.212179		35.108435		0.852082		-2.536546		81.423430		-18.036530		21.690413		55.678499		73.660525		-33.624675		7.381634		26.099401		79.325942		-9.792901		13.743652		70.327376		118.111866		-14.167357		15.005376		80.890130		
0.349394		-1.073582		-12.932369		93.632994		0.025071		1.834112		1.830592		66.357071		-4.338262		3.108301		-124.503198		27.954031		-1.346646		4.574212		66.492887		2.160999		5.678252		-122.070279		30.971983		-10.522936		1.755557		-53.893335		0.362792		-0.153811		35.117022		0.886766		-2.568018		82.570444		-18.080472		22.423935		55.946721		72.657585		-33.622123		7.047178		25.962488		80.417852		-9.648934		14.208990		70.297989		117.380106		-14.309558		15.042235		80.668279		
0.351742		-1.066504		-13.187153		93.618044		0.025198		1.833740		1.829066		66.460361		-4.303054		3.126156		-124.511745		27.952314		-1.326117		4.616916		66.602047		2.129007		5.671900		-122.085161		30.968589		-10.567133		1.971739		-53.652253		0.328456		-0.155092		35.162427		0.897549		-2.556416		83.620568		-17.895736		22.685763		56.214373		72.342368		-33.603279		6.881516		25.911445		81.485995		-9.460895		14.490647		70.300564		117.198031		-14.360046		15.019851		80.566952		
0.354091		-1.056935		-13.390688		93.617894		0.025252		1.833452		1.827484		66.499532		-4.292328		3.124694		-124.525498		27.943199		-1.293948		4.645005		66.656706		2.113792		5.674592		-122.113872		30.957063		-10.593405		2.088825		-53.461597		0.304898		-0.157542		35.177247		0.962583		-2.541298		84.709635		-17.760863		23.011118		56.455977		72.277704		-33.504334		6.802081		25.920865		82.596209		-9.322036		14.896839		70.308666		117.201402		-14.381970		14.944187		80.506730		
0.356439		-1.048304		-13.603493		93.621080		0.025262		1.833289		1.825849		66.525613		-4.282495		3.130725		-124.509558		27.950017		-1.274617		4.668145		66.697080		2.099817		5.665582		-122.112351		30.964357		-10.619550		2.174389		-53.270942		0.292939		-0.170903		35.224992		0.994116		-2.532146		85.770426		-17.563962		23.215485		56.701335		72.222308		-33.428338		6.713307		25.926762		83.654742		-9.116620		15.128804		70.322005		117.176466		-14.431933		14.875265		80.448534		
0.358788		-1.042909		-13.818119		93.631235		0.025222		1.833253		1.824155		66.528549		-4.284461		3.136035		-124.467907		27.964510		-1.261502		4.684522		66.718916		2.095442		5.651010		-122.082196		30.987308		-10.646987		2.221723		-53.084936		0.293202		-0.193203		35.313968		1.000586		-2.522150		86.818197		-17.314217		23.328064		56.923374		72.189923		-33.368153		6.627135		25.929830		84.689105		-8.868994		15.260565		70.324043		117.152435		-14.489051		14.813849		80.394581		
0.361136		-1.057186		-13.919319		93.647248		0.025091		1.833401		1.822372		66.397459		-4.328057		3.140255		-124.431530		27.946815		-1.231457		4.723035		66.619104		2.125008		5.621340		-122.065609		30.959728		-10.715608		2.325094		-53.016780		0.293158		-0.221519		35.350244		1.056558		-2.518109		87.994667		-17.209417		23.774030		57.083677		72.035132		-33.255025		6.519573		25.948947		85.811070		-8.729987		15.637174		70.309935		117.023644		-14.613210		14.708621		80.315693		
